<svg width="24" height="24" viewBox="0 0 24 24" fill="none" xmlns="http://www.w3.org/2000/svg">
    <path fill-rule="evenodd" clip-rule="evenodd"
          d="M20.2014 18.966C20.2014 19.2215 19.9942 19.4292 19.7391 19.4292H3.46232C3.20725 19.4292 3 19.2215 3 18.966V6.3C3 6.04444 3.20725 5.83681 3.46232 5.83681H4.17971V4.78264C4.17971 4.35139 4.53043 4 4.96087 4H10.971C11.7085 4 11.9539 4.74578 12.145 5.32651C12.1687 5.39857 12.1916 5.46809 12.2145 5.53333H21.2377C21.6681 5.53333 22.0188 5.88472 22.0188 6.31597V17.4486C22.0188 17.8799 21.6681 18.2312 21.2377 18.2312H20.2014V18.966ZM10.0942 6.3L10.4928 7.37014H19.7391C19.9942 7.37014 20.2014 7.57778 20.2014 7.83333V17.5924H21.2536C21.3333 17.5924 21.3812 17.5285 21.3812 17.4646V6.33194C21.3812 6.25208 21.3174 6.20417 21.2536 6.20417H11.7681C11.7418 6.13487 11.7107 6.02875 11.6741 5.90399C11.5336 5.42489 11.3125 4.67083 10.971 4.67083H4.97681C4.8971 4.67083 4.84928 4.73472 4.84928 4.79861V5.85278H9.48841C9.72754 5.85278 9.99855 6.06042 10.0942 6.3Z"
          fill="currentColor"/>
</svg>
