<svg width="24" height="24" viewBox="0 0 24 24" fill="none" xmlns="http://www.w3.org/2000/svg">
    <path d="M19.4325 6.33054C18.1126 6.19665 16.7926 6.09623 15.4644 6.02092V6.01255L15.2841 4.92469C15.1611 4.15481 14.9807 3 13.0623 3H10.9143C9.00402 3 8.82365 4.1046 8.69248 4.91632L8.52031 5.98745C7.75785 6.03766 6.99539 6.08787 6.23293 6.16318L4.56043 6.33054C4.21609 6.36402 3.97014 6.67364 4.00293 7.01674C4.03573 7.35983 4.33087 7.61088 4.67521 7.57741L6.34771 7.41004C10.6437 6.9749 14.9725 7.14226 19.3177 7.58577H19.3833C19.6949 7.58577 19.9654 7.3431 19.9982 7.01674C20.0106 6.84957 19.9583 6.68412 19.8525 6.55585C19.7468 6.42758 19.596 6.3467 19.4325 6.33054V6.33054ZM17.924 8.76569C17.7272 8.55649 17.4567 8.43933 17.1779 8.43933H6.81502C6.53627 8.43933 6.25752 8.55649 6.06896 8.76569C5.88039 8.9749 5.77381 9.25941 5.79021 9.5523L6.29851 18.1381C6.3887 19.41 6.50348 21 9.36476 21H14.6282C17.4895 21 17.6043 19.4184 17.6944 18.1381L18.2027 9.56067C18.2191 9.25941 18.1126 8.9749 17.924 8.76569V8.76569ZM13.3574 16.8075H10.6273C10.2912 16.8075 10.0124 16.523 10.0124 16.1799C10.0124 15.8368 10.2912 15.5523 10.6273 15.5523H13.3574C13.6936 15.5523 13.9723 15.8368 13.9723 16.1799C13.9723 16.523 13.6936 16.8075 13.3574 16.8075ZM14.0461 13.4603H9.94685C9.61071 13.4603 9.33196 13.1757 9.33196 12.8326C9.33196 12.4895 9.61071 12.205 9.94685 12.205H14.0461C14.3822 12.205 14.661 12.4895 14.661 12.8326C14.661 13.1757 14.3822 13.4603 14.0461 13.4603Z"
          fill="#F88677"/>
</svg>
